<?xml version="1.0" encoding="iso-8859-1"?>
<!-- Uploaded to: SVG Repo, www.svgrepo.com, Generator: SVG Repo Mixer Tools -->
<svg version="1.1" id="Layer_1" xmlns="http://www.w3.org/2000/svg" xmlns:xlink="http://www.w3.org/1999/xlink" 
	 viewBox="0 0 512 438" xml:space="preserve">
<path style="fill:#282017;" d="M288.9,413.138c-26.871,0-46.374-20.754-46.374-49.349V215.579c0-33.432,27.198-60.632,60.632-60.632
	h148.211c33.434,0,60.632,27.199,60.632,60.632v67.368c0,30.685-22.665,62.72-51.602,72.932L307.58,409.816
	C301.332,412.021,295.047,413.138,288.9,413.138z M303.158,195.368c-11.144,0-20.211,9.066-20.211,20.211v148.211
	c0,8.928,4.324,8.928,5.953,8.928c1.532,0,3.34-0.352,5.228-1.019l152.819-53.937c12.892-4.549,24.633-21.144,24.633-34.815v-67.368
	c0-11.144-9.065-20.211-20.211-20.211H303.158z"/>
<path style="fill:#FF5023;" d="M26.947,91.621V358.89c0,43.563,35.443,79.004,79.006,79.004h205.78
	c43.562,0,79.004-35.441,79.004-79.004V91.621H26.947z"/>
<path style="fill:#A2001D;" d="M208.842,91.621v346.274h102.889c43.563,0,79.006-35.441,79.006-79.004V91.621H208.842z"/>
<rect y="74.105" style="fill:#786145;" width="417.684" height="40.421"/>
<rect x="208.842" y="74.105" style="fill:#282017;" width="208.842" height="40.421"/>
<path style="fill:#FFDA44;" d="M247.144,191.806c-12.987-14.883-26.111-24.193-26.663-24.583l-11.517-8.113l-11.595,7.999
	c-1.392,0.961-13.967,9.799-26.784,24.395c-18.383,20.931-28.098,43.582-28.098,65.505c0,36.59,29.769,66.358,66.358,66.358
	s66.358-29.767,66.358-66.358C275.2,235.388,265.499,212.841,247.144,191.806z"/>
<path style="fill:#FF9811;" d="M247.144,191.806c-12.987-14.883-26.111-24.193-26.663-24.583l-11.517-8.113l-0.121,0.084v164.174
	c36.589,0,66.358-29.767,66.358-66.358C275.2,235.388,265.499,212.841,247.144,191.806z"/>
<rect x="188.632" y="242.526" style="fill:#282017;" width="40.421" height="114.526"/>
</svg>