<?xml version="1.0" encoding="iso-8859-1"?>
<!-- Uploaded to: SVG Repo, www.svgrepo.com, Generator: SVG Repo Mixer Tools -->
<svg height="800px" width="800px" version="1.1" id="Layer_1" xmlns="http://www.w3.org/2000/svg" xmlns:xlink="http://www.w3.org/1999/xlink" 
	 viewBox="0 0 512 512" xml:space="preserve">
<path style="fill:#DE333F;" d="M56,128c-8.84,0-16,7.16-16,16v320c0,26.512,21.488,48,48,48l0,0h240c26.512,0,48-21.488,48-48l0,0
	V144c0-8.84-7.16-16-16-16H56z"/>
<path style="fill:#B2C4D0;" d="M168.88,211.6c4.504-2.256,9.816-2.256,14.32,0l0.8,0.4v-84c0-4.416-3.584-8-8-8s-8,3.584-8,8v84
	L168.88,211.6z"/>
<g>
	<path style="fill:#E2E7F0;" d="M224,0c-4.416,0-8,3.584-8,8v24c0,4.416,3.584,8,8,8s8-3.584,8-8V8C232,3.584,228.416,0,224,0z"/>
	<path style="fill:#E2E7F0;" d="M288,56c-4.416,0-8,3.584-8,8v40c0,4.416,3.584,8,8,8s8-3.584,8-8V64C296,59.584,292.416,56,288,56z
		"/>
	<path style="fill:#E2E7F0;" d="M128,56c-4.416,0-8,3.584-8,8v40c0,4.416,3.584,8,8,8s8-3.584,8-8V64C136,59.584,132.416,56,128,56z
		"/>
	<path style="fill:#E2E7F0;" d="M192,72c-4.416,0-8,3.584-8,8v24c0,4.416,3.584,8,8,8s8-3.584,8-8V80C200,75.584,196.416,72,192,72z
		"/>
	<path style="fill:#E2E7F0;" d="M256,32c-4.416,0-8,3.584-8,8v64c0,4.416,3.584,8,8,8c4.416,0,8-3.584,8-8V40
		C264,35.584,260.416,32,256,32z"/>
	<path style="fill:#E2E7F0;" d="M160,32c-4.416,0-8,3.584-8,8v64c0,4.416,3.584,8,8,8s8-3.584,8-8V40C168,35.584,164.416,32,160,32z
		"/>
	<path style="fill:#E2E7F0;" d="M208,48c-4.416,0-8-3.584-8-8V8c0-4.416-3.584-8-8-8s-8,3.584-8,8v32c0,13.256,10.744,24,24,24
		c4.416,0,8,3.584,8,8v32c0,4.416,3.584,8,8,8s8-3.584,8-8V72C232,58.744,221.256,48,208,48z"/>
</g>
<path style="fill:#C61C31;" d="M222.56,217.44c0.936,2.064,1.432,4.296,1.44,6.56v72c0,8.84-7.16,16-16,16h-64
	c-2.264-0.008-4.496-0.504-6.56-1.44c2.576,5.736,8.272,9.424,14.56,9.44h56c13.256,0,24-10.744,24-24v-64
	C231.984,225.712,228.296,220.016,222.56,217.44z"/>
<path style="fill:#F6B545;" d="M144,208h64c8.84,0,16,7.16,16,16v72c0,8.84-7.16,16-16,16h-64c-8.84,0-16-7.16-16-16v-72
	C128,215.16,135.16,208,144,208z"/>
<path style="fill:#E78825;" d="M159.04,248.4c-9.056,8.624-9.416,22.952-0.792,32.008c0.256,0.272,0.52,0.536,0.792,0.792
	c9.488,9.064,24.432,9.064,33.92,0c9.056-8.624,9.416-22.952,0.792-32.008c-0.256-0.272-0.52-0.536-0.792-0.792L176,232
	L159.04,248.4z"/>
<path style="fill:#C61C31;" d="M440,216h-56c-4.416,0-8-3.584-8-8v-64h-48c-8.84,0-16,7.16-16,16v312c0,4.416-3.584,8-8,8H120
	c-17.672,0-32,14.328-32,32h240c26.512,0,48-21.488,48-48l0,0v-48c0-4.416,3.584-8,8-8h56c17.672,0,32-14.328,32-32V248
	C472,230.328,457.672,216,440,216z M432,376h-48c-4.416,0-8-3.584-8-8V256c0-4.416,3.584-8,8-8h48c4.416,0,8,3.584,8,8v112
	C440,372.416,436.416,376,432,376z"/>
<g>
	<path style="fill:#B4172B;" d="M384,248h48c0-8.84-7.16-16-16-16h-8c-8.84,0-16-7.16-16-16h-8c-4.416,0-8-3.584-8-8v48
		C376,251.584,379.584,248,384,248z"/>
	<path style="fill:#B4172B;" d="M424,392h-16c-8.84,0-16-7.16-16-16h-8c-4.416,0-8-3.584-8-8v48c0-4.416,3.584-8,8-8h56
		C440,399.16,432.84,392,424,392z"/>
</g>
</svg>