<?xml version="1.0" encoding="iso-8859-1"?>
<!-- Uploaded to: SVG Repo, www.svgrepo.com, Generator: SVG Repo Mixer Tools -->
<svg version="1.1" id="Layer_1" xmlns="http://www.w3.org/2000/svg" xmlns:xlink="http://www.w3.org/1999/xlink" 
	 viewBox="0 0 512 512" xml:space="preserve">
<g>
	<polygon style="fill:#414D53;" points="405.758,19.062 405.758,57.189 373.077,57.189 340.396,38.125 373.077,19.062 	"/>
	<rect x="288.114" y="122.553" style="fill:#414D53;" width="38.128" height="65.362"/>
</g>
<path style="fill:#F37C4A;" d="M362.194,166.125h-32.681v98.043h76.266V209.7C405.78,185.734,386.171,166.125,362.194,166.125z"/>
<path style="fill:#F7A676;" d="M329.513,166.125h-77.356c-23.966,0-43.574,19.609-43.574,43.574v54.468h164.515V209.7
	C373.099,185.734,353.49,166.125,329.513,166.125z"/>
<g>
	<path style="fill:#ED6350;" d="M405.78,231.487h-43.574l87.16,272.34h43.574V318.636
		C492.939,270.704,453.712,231.487,405.78,231.487z"/>
	<path style="fill:#ED6350;" d="M121.424,323.353l76.255,87.726h-80.558c-9.684,0-19.412-2.495-28.378-6.852l-21.787-101.18h22.8
		C96.237,313.767,109.125,322.122,121.424,323.353z"/>
</g>
<g>
	<path style="fill:#F37C4A;" d="M89.756,303.047c-0.665,5.098-1.013,10.305-1.013,15.589v85.591
		c-18.748-9.107-34.162-26.384-38.945-46.08l-30.731-126.66h42.038l26.221,66.68C87.98,299.834,88.797,301.468,89.756,303.047z"/>
	<path style="fill:#F37C4A;" d="M362.205,231.487H208.583c-47.943,0-87.16,39.217-87.16,87.149v185.191h327.941V318.636
		C449.365,270.704,410.137,231.487,362.205,231.487z"/>
</g>
<rect x="208.58" y="19.062" style="fill:#57676E;" width="164.494" height="38.128"/>
<path d="M503.83,495.66h-2.725V318.638c0-25.924-10.408-49.458-27.258-66.658V81.702c0-28.531-23.213-51.745-51.745-51.745h-8.17
	V19.38c0.004-0.106,0.016-0.209,0.016-0.316c0-0.107-0.012-0.21-0.016-0.316V8.17c0-4.513-3.657-8.17-8.17-8.17
	c-4.513,0-8.17,3.657-8.17,8.17v2.723H216.752V8.17c0-4.513-3.658-8.17-8.17-8.17s-8.17,3.657-8.17,8.17v21.787h-8.171
	c-28.535,0-51.749,23.213-51.749,51.745v170.3c-15.575,15.908-25.633,37.23-27.055,60.845c-8.184-3.518-15.624-10.33-18.508-17.667
	l-26.215-66.681c-0.009-0.023-0.021-0.042-0.029-0.065c-0.069-0.171-0.147-0.338-0.228-0.502c-0.04-0.084-0.078-0.17-0.121-0.252
	c-0.073-0.137-0.154-0.269-0.233-0.402c-0.062-0.103-0.122-0.208-0.187-0.308c-0.063-0.096-0.134-0.186-0.202-0.279
	c-0.091-0.126-0.182-0.254-0.281-0.376c-0.049-0.06-0.103-0.115-0.155-0.174c-0.123-0.142-0.246-0.283-0.377-0.415
	c-0.046-0.046-0.096-0.087-0.143-0.133c-0.142-0.135-0.283-0.269-0.434-0.393c-0.066-0.056-0.138-0.105-0.207-0.158
	c-0.136-0.106-0.271-0.211-0.413-0.308c-0.107-0.072-0.219-0.135-0.328-0.204c-0.11-0.068-0.218-0.138-0.331-0.202
	c-0.138-0.076-0.283-0.143-0.427-0.21c-0.093-0.044-0.182-0.093-0.276-0.133c-0.142-0.061-0.289-0.112-0.434-0.165
	c-0.103-0.037-0.206-0.08-0.312-0.113c-0.123-0.039-0.249-0.069-0.376-0.102c-0.136-0.037-0.271-0.075-0.409-0.106
	c-0.097-0.022-0.196-0.034-0.294-0.051c-0.173-0.03-0.346-0.061-0.522-0.08c-0.074-0.008-0.15-0.011-0.225-0.017
	c-0.202-0.016-0.402-0.028-0.605-0.029c-0.02,0-0.038-0.003-0.058-0.003H8.17c-4.512,0-8.17,3.657-8.17,8.17
	c0,4.513,3.658,8.17,8.17,8.17h4.47l29.22,120.413c7.615,31.379,39.128,57.118,71.396,59.048v76.541h-2.724
	c-4.512,0-8.17,3.657-8.17,8.17s3.658,8.17,8.17,8.17H503.83c4.513,0,8.17-3.657,8.17-8.17S508.343,495.66,503.83,495.66z
	 M397.592,27.234v21.787H216.752V27.234H397.592z M192.241,46.298h8.171v21.787c0,4.513,3.658,8.17,8.17,8.17s8.17-3.657,8.17-8.17
	v-2.723h180.838v2.723c0,4.513,3.657,8.17,8.17,8.17c4.513,0,8.17-3.657,8.17-8.17V57.507c0.004-0.106,0.016-0.209,0.016-0.316
	c0-0.107-0.012-0.21-0.016-0.316V46.298h8.17c19.522,0,35.404,15.882,35.404,35.404v156.908
	c-12.755-8.273-27.602-13.577-43.558-14.937v-13.971c0-28.531-23.215-51.745-51.75-51.745h-27.784v-27.234h2.723
	c4.513,0,8.17-3.657,8.17-8.17c0-4.513-3.657-8.17-8.17-8.17h-59.915c-4.513,0-8.17,3.657-8.17,8.17c0,4.513,3.657,8.17,8.17,8.17
	h2.723v27.234h-27.784c-28.535,0-51.749,23.213-51.749,51.745v13.971c-15.966,1.362-30.82,6.671-43.58,14.951V81.702
	C156.832,62.18,172.716,46.298,192.241,46.298z M216.752,223.319v-13.617c0-19.522,15.885-35.404,35.409-35.404h110.036
	c19.525,0,35.41,15.882,35.41,35.404v13.617H216.752z M318.073,130.723v27.234h-21.787v-27.234H318.073z M129.595,373.106
	c0-4.513-3.658-8.17-8.17-8.17c-4.512,0-8.17,3.657-8.17,8.17v29.633c-24.816-1.966-49.678-22.46-55.515-46.52L29.455,239.66h26.087
	l24.179,61.5c5.245,13.34,18.911,24.818,33.534,28.914v10.352c0,4.513,3.658,8.17,8.17,8.17c4.512,0,8.17-3.657,8.17-8.17v-21.787
	c0-21.527,8.668-41.06,22.685-55.321c1.506-0.746,2.752-1.935,3.556-3.406c13.995-12.58,32.489-20.251,52.746-20.251h197.195
	c20.237,0,38.715,7.657,52.706,20.216c0.809,1.5,2.08,2.71,3.614,3.461c14.006,14.26,22.666,33.785,22.666,55.303v177.02H129.595
	V373.106z"/>
</svg>